<?xml version="1.0" encoding="UTF-8" standalone="no"?>
<!-- Created with Inkscape (http://www.inkscape.org/) -->

<svg
   width="1920px"
   height="1080px"
   viewBox="0 0 1920 1080"
   version="1.1"
   id="SVGRoot"
   sodipodi:docname="loyout site.svg"
   inkscape:version="1.1 (c68e22c387, 2021-05-23)"
   xmlns:inkscape="http://www.inkscape.org/namespaces/inkscape"
   xmlns:sodipodi="http://sodipodi.sourceforge.net/DTD/sodipodi-0.dtd"
   xmlns:xlink="http://www.w3.org/1999/xlink"
   xmlns="http://www.w3.org/2000/svg"
   xmlns:svg="http://www.w3.org/2000/svg">
  <sodipodi:namedview
     id="namedview14"
     pagecolor="#505050"
     bordercolor="#ffffff"
     borderopacity="1"
     inkscape:pageshadow="0"
     inkscape:pageopacity="0"
     inkscape:pagecheckerboard="1"
     inkscape:document-units="px"
     showgrid="false"
     inkscape:zoom="0.70710678"
     inkscape:cx="635.68899"
     inkscape:cy="538.10826"
     inkscape:window-width="1920"
     inkscape:window-height="1009"
     inkscape:window-x="-8"
     inkscape:window-y="-8"
     inkscape:window-maximized="1"
     inkscape:current-layer="layer3"
     inkscape:snap-bbox="true"
     inkscape:bbox-nodes="true"
     inkscape:snap-global="true"
     inkscape:bbox-paths="true"
     inkscape:snap-midpoints="true" />
  <defs
     id="defs9">
    <rect
       x="74"
       y="262"
       width="284"
       height="63"
       id="rect20329" />
    <linearGradient
       id="linearGradient13123"
       inkscape:swatch="gradient">
      <stop
         style="stop-color:#000000;stop-opacity:1;"
         offset="0"
         id="stop13119" />
      <stop
         style="stop-color:#0000ff;stop-opacity:0;"
         offset="1"
         id="stop13121" />
    </linearGradient>
    <linearGradient
       inkscape:collect="always"
       id="linearGradient1568">
      <stop
         style="stop-color:#0000ff;stop-opacity:1;"
         offset="0"
         id="stop1564" />
      <stop
         style="stop-color:#0049ff;stop-opacity:1"
         offset="1"
         id="stop1566" />
    </linearGradient>
    <linearGradient
       inkscape:collect="always"
       xlink:href="#linearGradient1568"
       id="linearGradient1570"
       x1="987.12103"
       y1="1080.4591"
       x2="981.46417"
       y2="-5.6568522"
       gradientUnits="userSpaceOnUse" />
  </defs>
  <g
     inkscape:groupmode="layer"
     id="layer2"
     inkscape:label="cor"
     style="display:inline"
     sodipodi:insensitive="true">
    <rect
       style="fill:url(#linearGradient1570);fill-opacity:1;fill-rule:evenodd;stroke-width:1.00001"
       id="rect273"
       width="1920.8147"
       height="1081.6512"
       x="0.0017543938"
       y="1.1117177e-07" />
  </g>
  <g
     inkscape:label="barra menu lateral"
     inkscape:groupmode="layer"
     id="layer1"
     style="display:inline"
     sodipodi:insensitive="true">
    <rect
       style="fill:#00019e;fill-opacity:1;stroke-width:0.999836"
       id="rect2322"
       width="435.58887"
       height="1079.923"
       x="-0.011048483"
       y="0.011048449" />
  </g>
  <g
     inkscape:groupmode="layer"
     id="layer3"
     inkscape:label="biloto menu barra"
     style="display:inline"
     sodipodi:insensitive="true">
    <ellipse
       style="fill:#ffffff;fill-opacity:1;stroke:#050400;stroke-width:2.5;stroke-miterlimit:4;stroke-dasharray:none;stroke-opacity:1"
       id="path12345"
       cx="214"
       cy="132"
       rx="123"
       ry="116" />
    <text
       xml:space="preserve"
       id="text20327"
       style="font-style:italic;font-variant:normal;font-weight:normal;font-stretch:normal;font-size:40.1475px;line-height:1.25;font-family:sans-serif;-inkscape-font-specification:'sans-serif, Italic';font-variant-ligatures:normal;font-variant-caps:normal;font-variant-numeric:normal;font-variant-east-asian:normal;white-space:pre;shape-inside:url(#rect20329);fill:#000000;fill-opacity:1;stroke:none"
       transform="matrix(1.5741243,0,0,2.221127,-58.475047,-347.76861)"><tspan
         x="74"
         y="297.52113"
         id="tspan57206">seu nome</tspan></text>
    <path
       style="fill:#ffffff;fill-opacity:1;stroke:#050400;stroke-width:2.5;stroke-miterlimit:4;stroke-dasharray:none;stroke-opacity:1"
       d="m 192.95224,310.25 c 0.26968,-1.2375 1.64713,-11.025 3.06098,-21.75 3.24547,-24.61897 3.10347,-24 5.50583,-24 1.61312,0 1.98095,0.67838 1.98095,3.6534 v 3.6534 l 3.50505,-3.60903 c 6.47311,-6.66515 13.8817,-5.74855 17.21624,2.13001 1.43146,3.38213 1.38053,5.05466 -0.64472,21.17222 -2.60899,20.7631 -2.66702,21 -5.14396,21 -2.42266,0 -2.4224,-0.0257 0.18984,-19.16308 1.1759,-8.61469 1.85372,-16.79573 1.50627,-18.18007 -1.04824,-4.17655 -3.52069,-5.93607 -7.44615,-5.29905 -4.41104,0.71581 -7.72635,3.8301 -9.62658,9.04287 -1.09997,3.01745 -5.55599,29.62812 -5.55599,33.17948 0,0.23091 -1.13357,0.41985 -2.51905,0.41985 -2.09097,0 -2.43573,-0.38236 -2.02871,-2.25 z"
       id="path42541" />
    <path
       style="fill:#ffffff;fill-opacity:1;stroke:#050400;stroke-width:2.5;stroke-miterlimit:4;stroke-dasharray:none;stroke-opacity:1"
       d="m 137.55275,311.55275 c -3.83975,-3.83975 -4.21978,-8.55367 -2.02903,-25.16848 2.9807,-22.60591 2.79423,-21.88427 5.65496,-21.88427 1.85868,0 2.3372,0.42566 1.96729,1.75 -0.26884,0.9625 -1.47732,9.22782 -2.68551,18.36739 -1.90923,14.44272 -2.01674,16.99463 -0.82148,19.5 1.09275,2.29052 2.13329,2.94572 5.06593,3.18986 8.6003,0.71598 11.81393,-5.11767 14.90523,-27.05725 2.17894,-15.4643 2.26382,-15.75 4.67953,-15.75 2.14697,0 2.39222,0.35025 1.92556,2.75 -0.29412,1.5125 -1.80704,12.3125 -3.36204,24 -2.78885,20.96123 -2.8598,21.25 -5.22107,21.25 -2.1773,0 -2.34243,-0.31656 -1.82583,-3.5 0.31238,-1.925 0.4242,-3.5 0.24849,-3.5 -0.17572,0 -2.11949,1.8 -4.31949,4 -3.37142,3.37143 -4.64706,4 -8.11764,4 -2.74714,0 -4.76577,-0.64812 -6.0649,-1.94725 z"
       id="path42580" />
    <path
       style="fill:#ffffff;fill-opacity:1;stroke:#050400;stroke-width:0.625;stroke-miterlimit:4;stroke-dasharray:none;stroke-opacity:1"
       d="m 104.625,313.74216 c -4.829024,-1.33456 -8.232254,-4.95083 -9.723505,-10.33219 -1.250184,-4.51144 -1.21066,-11.69962 0.09999,-18.18536 1.795027,-8.88266 6.355125,-16.79362 11.407525,-19.79003 3.9195,-2.32452 8.8943,-2.79468 12.43225,-1.17496 5.04449,2.30945 8.02601,8.72255 8.03197,17.27639 0.002,2.3975 -0.35264,7.04872 -0.63047,8.27649 l -0.12729,0.5625 h -13.10548 c -9.80018,0 -13.151467,0.0744 -13.287807,0.295 -0.100277,0.16226 -0.184682,1.87788 -0.187566,3.8125 -0.008,5.37464 0.904943,8.27031 3.362053,10.66361 1.90418,1.85473 3.40771,2.33955 7.22833,2.33081 2.20029,-0.005 3.60585,-0.13872 4.75,-0.45177 1.95859,-0.53588 4.8425,-1.83971 6.41171,-2.89876 0.63148,-0.42618 1.18324,-0.73978 1.22613,-0.69689 0.0429,0.0429 -0.13564,1.59505 -0.39672,3.44924 -0.26109,1.85419 -0.4784,3.49414 -0.48291,3.64434 -0.012,0.39852 -3.53012,1.97418 -6.13321,2.74687 -2.8592,0.84871 -8.60921,1.09839 -10.875,0.47221 z m 16.84243,-29.92966 c 0.27413,-1.02294 0.15477,-4.53472 -0.21315,-6.2712 -0.70012,-3.30436 -2.12778,-5.55634 -4.35107,-6.86336 C 115.86769,270.06919 115.50762,270 113.375,270 c -2.05362,0 -2.56844,0.0907 -3.80452,0.67001 -2.56669,1.20301 -5.14045,4.10354 -6.6956,7.54569 -0.66342,1.46841 -1.99988,5.42604 -1.99988,5.9222 0,0.1456 3.94451,0.2371 10.22084,0.2371 h 10.22084 z"
       id="path42619" />
    <path
       style="fill:#ffffff;fill-opacity:1;stroke:#050400;stroke-width:0.625;stroke-miterlimit:4;stroke-dasharray:none;stroke-opacity:1"
       d="m 67.75,313.96139 c -2.642023,-0.55803 -4.3608,-1.03763 -6.375,-1.77886 -1.30625,-0.4807 -2.409716,-0.90314 -2.452146,-0.93875 -0.09605,-0.0806 0.919458,-7.66943 1.042807,-7.79278 0.04934,-0.0493 0.911122,0.41672 1.915062,1.03569 3.810987,2.34963 6.994967,3.27239 10.673817,3.09343 1.679084,-0.0817 2.530417,-0.26068 3.619584,-0.76101 2.676903,-1.22969 4.535219,-3.71986 4.947334,-6.62949 0.591935,-4.17922 -1.489127,-6.37179 -8.567019,-9.02608 -2.991373,-1.12179 -5.766071,-2.82439 -6.789446,-4.16611 -1.45817,-1.91175 -1.977544,-3.5305 -2.093011,-6.52333 -0.331159,-8.5834 3.732189,-14.83744 10.871014,-16.73196 2.009828,-0.53337 6.674835,-0.52472 9.082004,0.0168 2.823425,0.63522 5.749937,1.81679 5.75031,2.32168 7.5e-4,0.96038 -0.83889,6.43662 -1.017648,6.63757 -0.106777,0.12003 -0.537967,-0.0266 -0.958202,-0.32582 -2.800728,-1.9943 -7.463809,-3.07354 -10.89946,-2.52261 -4.560092,0.73124 -7.217708,3.28201 -7.550078,7.24652 -0.122237,1.45804 -0.05545,1.88126 0.482196,3.05564 0.924394,2.01914 2.266613,2.97154 7.128492,5.05818 6.151027,2.63992 8.072105,4.00913 9.25732,6.59799 1.78118,3.89061 1.117742,10.57841 -1.487733,14.99712 -1.99163,3.37766 -5.553666,6.04866 -9.218419,6.91245 -1.487044,0.3505 -6.09804,0.4906 -7.361778,0.22368 z"
       id="path42658" />
    <path
       style="fill:#ffffff;fill-opacity:1;stroke:#050400;stroke-width:0.625;stroke-miterlimit:4;stroke-dasharray:none;stroke-opacity:1"
       d="m 242.83559,313.77764 c -2.79638,-0.75317 -5.44372,-3.05723 -7.06313,-6.14726 -1.8393,-3.50961 -2.64746,-7.48697 -2.64746,-13.02953 0,-8.00712 1.93625,-16.05937 5.20693,-21.65392 2.34712,-4.01479 5.03624,-6.73736 8.16807,-8.26969 2.43916,-1.19342 5.14973,-1.62853 7.875,-1.26412 4.83084,0.64595 8.87836,5.06537 10.49735,11.46188 1.83141,7.23578 0.15897,20.46428 -3.51296,27.78649 -2.99447,5.97128 -7.13245,9.90387 -11.64548,11.06746 -1.81243,0.4673 -5.23415,0.49152 -6.87832,0.0487 z m 7.66194,-7.01548 c 4.48911,-2.19632 7.95111,-8.87459 9.14307,-17.63716 0.43491,-3.19721 0.38771,-9.76113 -0.0857,-11.91435 -0.81663,-3.71451 -2.81501,-6.38851 -5.29285,-7.08227 -1.92081,-0.53779 -4.51471,-0.23118 -6.35864,0.75163 -3.98967,2.12647 -7.17701,7.97987 -8.57358,15.74499 -0.67805,3.77 -0.73954,10.94296 -0.11747,13.70229 0.8928,3.96026 2.56351,6.14592 5.41098,7.07881 0.34464,0.11291 1.48597,0.17143 2.53629,0.13005 1.47956,-0.0583 2.23133,-0.23262 3.33786,-0.77399 z"
       id="path42697" />
    <path
       style="fill:#ffffff;fill-opacity:1;stroke:#050400;stroke-width:0.625;stroke-miterlimit:4;stroke-dasharray:none;stroke-opacity:1"
       d="m 271.20089,311.8125 c 0.078,-0.58438 1.58339,-11.49651 3.34542,-24.24919 l 3.20369,-23.18669 2.6875,-8.1e-4 c 2.39535,-7.2e-4 2.68687,0.0467 2.68175,0.43669 -0.003,0.24062 -0.2224,1.89638 -0.4872,3.67946 -0.26481,1.78308 -0.44164,3.28178 -0.39298,3.33045 0.0487,0.0487 0.60047,-0.70296 1.22622,-1.67028 2.12199,-3.28026 5.18845,-5.74015 8.13163,-6.52313 1.58972,-0.42291 4.03898,-0.3736 5.497,0.11068 2.72074,0.90368 5.09224,4.11236 5.89259,7.97275 0.19526,0.94184 0.40231,1.75972 0.4601,1.81752 0.0578,0.0578 0.63118,-0.80038 1.2742,-1.90705 1.32715,-2.28408 4.10644,-5.34429 5.89758,-6.49366 1.91677,-1.22999 3.82951,-1.79371 6.08614,-1.79371 4.28256,0 7.06388,2.53457 8.45879,7.70834 0.43753,1.62281 0.52657,2.65901 0.52257,6.08113 -0.004,3.79905 -0.1749,5.34978 -2.15726,19.625 -1.18385,8.525 -2.15271,15.64062 -2.15304,15.8125 -5e-4,0.23117 -0.72197,0.3125 -2.77257,0.3125 h -2.77197 l 0.14675,-0.9375 c 0.43659,-2.78907 3.91714,-28.84155 4.15679,-31.11425 0.6273,-5.94887 -1.06316,-9.93577 -4.52786,-10.67881 -1.42192,-0.30495 -3.30478,-0.0207 -4.86446,0.7343 -2.0945,1.01393 -4.83153,4.39058 -6.20377,7.65353 -1.15447,2.74515 -1.6251,5.27393 -3.53005,18.96773 -1.03289,7.425 -1.94536,13.92187 -2.02769,14.4375 l -0.14971,0.9375 h -2.72178 -2.72177 l 0.12137,-0.6875 c 0.0668,-0.37813 1.04295,-7.26875 2.16933,-15.3125 2.64438,-18.88432 2.71999,-21.49211 0.71105,-24.52505 -1.08102,-1.63205 -2.46635,-2.32958 -4.56249,-2.29728 -4.87173,0.0751 -9.1103,4.92417 -10.91732,12.48987 -0.25932,1.08575 -1.35753,8.35445 -2.44047,16.15267 L 276.5,312.8738 l -2.72042,6e-4 -2.72042,6e-4 z"
       id="path42736" />
    <path
       style="fill:#ffffff;fill-opacity:1;stroke:#050400;stroke-width:0.625;stroke-miterlimit:4;stroke-dasharray:none;stroke-opacity:1"
       d="m 344.875,313.97245 c -1.29058,-0.23597 -3.66807,-1.19387 -4.8764,-1.96473 -2.70296,-1.72437 -4.82745,-4.96318 -5.90859,-9.00772 -0.42172,-1.57764 -0.55955,-2.96852 -0.6527,-6.58624 -0.22041,-8.561 1.16412,-15.10963 4.62842,-21.89173 3.85239,-7.54189 8.76865,-11.15744 15.2191,-11.19255 4.8924,-0.0266 8.25413,2.1673 10.60424,6.92052 1.83107,3.70343 2.09186,5.18393 2.06975,11.75 -0.0106,3.1625 -0.11962,6.3125 -0.24215,7 l -0.22279,1.25 -13.16506,0.0647 -13.16506,0.0647 -0.16901,0.7695 c -0.32289,1.4701 -0.18224,6.55251 0.22982,8.30454 1.00803,4.28605 3.31369,6.89872 6.90043,7.81922 2.04973,0.52605 5.81137,0.35105 8.45375,-0.39328 1.76459,-0.49707 4.80058,-1.91051 6.48375,-3.01859 0.44687,-0.29419 0.8125,-0.41475 0.8125,-0.26791 0,0.26126 -0.63703,4.89505 -0.88474,6.43566 -0.11251,0.69978 -0.34598,0.88103 -2.30772,1.79155 -3.42273,1.58861 -5.61593,2.08277 -9.68254,2.18158 -1.925,0.0468 -3.78125,0.0336 -4.125,-0.0292 z m 15.99566,-32.28495 c -0.007,-4.43513 -0.8935,-7.3411 -2.92487,-9.58958 -1.51555,-1.67754 -2.56584,-2.09102 -5.32079,-2.09473 -3.11089,-0.004 -4.6107,0.65468 -6.97935,3.06599 -2.2916,2.33288 -3.992,5.71765 -5.39708,10.74332 l -0.15726,0.5625 h 10.39184 10.39185 z"
       id="path42775" />
    <rect
       style="fill:#ffffff;fill-opacity:1;stroke:#050400;stroke-width:2.5;stroke-miterlimit:4;stroke-dasharray:none;stroke-opacity:1"
       id="rect43197"
       width="434.16357"
       height="2.1213202"
       x="1.4142135"
       y="345.77521" />
  </g>
</svg>
